<svg xmlns="http://www.w3.org/2000/svg" xmlns:xlink="http://www.w3.org/1999/xlink" width="2000" zoomAndPan="magnify" viewBox="0 0 1500 1499.999933" height="2000" preserveAspectRatio="xMidYMid meet" version="1.0"><defs><clipPath id="c112736bce"><path d="M 84.375 0 L 1415.625 0 L 1415.625 1500 L 84.375 1500 Z M 84.375 0 " clip-rule="nonzero"/></clipPath></defs><g clip-path="url(#c112736bce)"><path fill="#3566ea" d="M 624.964844 -0.0195312 L 191.898438 -0.0195312 C 132.65625 -0.0195312 84.628906 47.277344 84.628906 105.621094 L 84.628906 687.046875 L 414.378906 687.046875 C 407.945312 664.425781 397.25 638.839844 381.519531 604.164062 C 351.628906 538.289062 332.175781 487.828125 354.003906 434.558594 C 375.828125 381.296875 423.269531 362.144531 472.609375 361.210938 C 521.953125 360.269531 589.792969 371.488281 608.292969 377.089844 C 626.796875 382.695312 636.761719 386.433594 623.476562 393.449219 C 610.195312 400.453125 547.09375 429.417969 547.09375 429.417969 C 645.300781 408.394531 823.6875 362.960938 879.191406 361.148438 C 934.710938 359.332031 979.300781 365.410156 1013.457031 407.933594 C 1047.625 450.445312 1046.429688 528.949219 1013.457031 584.3125 C 980.484375 639.679688 963.410156 676.953125 964.828125 729.804688 C 966.25 782.65625 964.59375 936.835938 936.128906 1020.945312 C 907.65625 1105.042969 888.210938 1145.6875 864.957031 1170.921875 C 841.710938 1196.152344 827.957031 1155.042969 826.054688 1108.78125 C 824.164062 1062.53125 829.617188 995.007812 825.34375 963.476562 C 821.070312 931.9375 782.644531 877.269531 742.796875 856.945312 C 702.945312 836.621094 634.628906 830.304688 606.871094 916.515625 C 579.121094 1002.722656 566.308594 1156.207031 556.34375 1174.425781 C 546.382812 1192.652344 502.972656 1230.445312 472.371094 1178.613281 C 441.773438 1126.765625 440.351562 1098.738281 440.351562 1098.738281 C 421.847656 1019.546875 411.167969 910.914062 411.167969 870.957031 C 411.167969 852.269531 413.210938 832.734375 415.511719 812.953125 L 84.628906 812.953125 L 84.628906 1394.375 C 84.628906 1452.722656 132.65625 1500.019531 191.898438 1500.019531 L 616.964844 1500.019531 C 1121.28125 1500.019531 1415.46875 1178.582031 1415.46875 745.71875 L 1415.46875 741.425781 C 1415.46875 308.5625 1125.285156 -0.0195312 624.964844 -0.0195312 " fill-opacity="1" fill-rule="nonzero"/></g></svg>